<svg class="TopbarDesktop_logo__3GzUZ" alt="Pethomer.com" viewBox="0 0 780 538" xmlns="http://www.w3.org/2000/svg"><g fill-rule="nonzero"><g fill="#fff"><path d="m0-92.948c-3.057 0-5.575 1.564-7.027 3.136l-40.456 39.022c-.785.74-3.171 3.299-3.358 7.166-.096 1.973.362 4.938 3.077 7.862 1.705 1.835 4.009 2.846 6.486 2.846.717 0 1.442-.084 2.173-.252l-.088 21.463c-.067 1.362.036 5.143 2.815 8.201 1.453 1.599 4.118 3.504 8.569 3.504h55.382c4.448 0 7.115-1.901 8.57-3.497 2.789-3.059 2.898-6.847 2.835-8.198l-.075-21.391c.72.168 1.453.26 2.195.26 2.487 0 4.798-1.014 6.508-2.854 2.703-2.911 3.178-5.866 3.102-7.832-.152-3.924-2.559-6.525-3.267-7.208l-40.491-39.227c-2.56-2.48-5.192-3.001-6.95-3.001m0 6c.813 0 1.761.327 2.775 1.311l40.496 39.231s3.29 3.033-.061 6.643c-.617.664-1.34.937-2.112.937-3.421 0-7.807-5.364-8.235-5.88l.116 33.196s.509 5.51-5.406 5.51h-55.382c-5.914 0-5.385-5.51-5.385-5.51l.136-33.362c-.428.518-4.805 5.956-8.22 5.956-.763 0-1.478-.271-2.09-.93-3.351-3.607.018-6.595.018-6.595l40.649-39.208s1.082-1.299 2.701-1.299" transform="matrix(4.16667 0 0 4.16667 567.75878754 387.284059827)"></path><path d="m0 4.795c0 .72.004 1.69.014 2.91.007 1.222.056 2.526.144 3.912.088 1.388.229 2.793.422 4.216.193 1.422.479 2.709.856 3.859.377 1.151.851 2.09 1.421 2.819.573.728 1.288 1.093 2.149 1.093.894 0 1.658-.312 2.291-.935s1.16-1.432 1.58-2.424c.422-.992.756-2.116 1.002-3.372.246-1.255.43-2.515.553-3.78s.203-2.472.238-3.622c.035-1.151.053-2.13.053-2.938v-1.238c-1.459-.579-2.606-1.089-3.44-1.528s-1.461-.86-1.883-1.264c-.421-.404-.689-.83-.802-1.278-.116-.448-.172-.97-.172-1.568 0-.316.008-.628.025-.934.018-.308.067-.58.147-.818.078-.237.191-.429.341-.579.149-.149.356-.223.62-.223.175 0 .337.035.486.104.15.07.34.168.566.29.58.317 1.108.575 1.582.777.475.203.877.365 1.211.488.387.14.739.246 1.055.316 0-.228.004-.68.012-1.357.009-.676.062-1.448.158-2.318.098-.87.26-1.778.488-2.726.229-.949.563-1.819 1-2.609.44-.79 1.01-1.444 1.713-1.962s1.572-.778 2.609-.778c.315 0 .641.031.975.093.332.061.635.176.908.342.272.168.5.391.686.672.183.281.275.641.275 1.08 0 .123-.004.207-.013.251-.008.044-.012.1-.012.171l-1.608 6.77-.236 2.081c1.721-.264 3.203-.684 4.451-1.264 1.246-.58 2.28-1.265 3.096-2.055s1.422-1.66 1.818-2.609c.395-.948.592-1.922.592-2.923 0-.984-.189-1.99-.566-3.017s-1.032-1.962-1.963-2.806c-.93-.842-2.178-1.536-3.74-2.081-1.565-.544-3.53-.816-5.901-.816-1.775 0-3.383.338-4.822 1.014-1.44.676-2.723 1.594-3.846 2.752-1.125 1.16-2.099 2.512-2.924 4.058-.826 1.546-1.505 3.192-2.041 4.94-.537 1.748-.931 3.547-1.185 5.4-.256 1.853-.383 3.657-.383 5.414m15.807-29.769c2.949 0 5.535.4 7.757 1.199 2.221.799 4.071 1.861 5.545 3.187 1.477 1.326 2.586 2.85 3.334 4.57.746 1.722 1.12 3.504 1.12 5.349 0 1.721-.334 3.424-1.002 5.11s-1.672 3.241-3.016 4.664c-1.344 1.421-3.039 2.651-5.084 3.687-2.047 1.037-4.449 1.766-7.205 2.187-.053 1.282-.098 2.459-.133 3.53-.018.457-.035.913-.053 1.37-.017.457-.031.874-.039 1.251-.01.378-.017.707-.025.988-.01.281-.014.474-.014.579-.035 1.23-.181 2.508-.435 3.833-.254 1.327-.623 2.622-1.106 3.886-.484 1.265-1.072 2.464-1.765 3.597-.694 1.133-1.502 2.124-2.424 2.976s-1.953 1.529-3.096 2.029c-1.141.501-2.389.751-3.74.751-1.44 0-2.727-.373-3.86-1.12-1.132-.747-2.125-1.751-2.976-3.016-.852-1.265-1.572-2.723-2.16-4.373-.59-1.652-1.067-3.377-1.436-5.177s-.637-3.613-.805-5.44c-.166-1.827-.25-3.547-.25-5.163 0-2.775.254-5.454.764-8.036.51-2.581 1.238-5.001 2.188-7.257.947-2.256 2.097-4.316 3.451-6.178 1.351-1.861 2.875-3.459 4.57-4.794s3.539-2.366 5.531-3.096c1.995-.728 4.116-1.093 6.364-1.093" transform="matrix(4.16667 0 0 4.16667 29.418773535 217.88350764)"></path><path d="m0 .5c.633 0 1.322-.162 2.068-.487s1.44-.742 2.082-1.251c.641-.51 1.18-1.063 1.62-1.66.439-.597.658-1.176.658-1.739 0-.79-.145-1.44-.434-1.949-.291-.51-.646-.765-1.066-.765-.756 0-1.403.141-1.938.422-.535.282-.984.646-1.344 1.093-.359.448-.648.958-.869 1.528-.218.572-.386 1.147-.5 1.726-.115.579-.189 1.142-.224 1.686s-.053 1.01-.053 1.396m3.504 12.382c-1.65 0-3.096-.299-4.334-.896-1.238-.596-2.27-1.4-3.094-2.411-.826-1.009-1.445-2.177-1.857-3.503-.414-1.326-.619-2.718-.619-4.176 0-.983.095-2.024.289-3.122.193-1.096.488-2.172.882-3.226.395-1.054.891-2.06 1.489-3.017.597-.957 1.295-1.8 2.094-2.529.798-.729 1.695-1.308 2.687-1.738.992-.431 2.094-.646 3.307-.646.982 0 1.896.158 2.74.474.842.316 1.576.761 2.199 1.331s1.109 1.26 1.461 2.067c.352.809.527 1.713.527 2.714 0 1.089-.267 2.178-.802 3.267-.537 1.089-1.278 2.116-2.227 3.082s-2.076 1.827-3.385 2.582c-1.308.755-2.726 1.344-4.254 1.764.262.475.522.87.776 1.186.256.316.513.562.777.737.264.176.541.3.83.369.291.071.602.106.936.106 1.054 0 2.164-.211 3.332-.632 1.168-.422 2.305-.949 3.412-1.581 1.105-.632 2.15-1.321 3.135-2.068.984-.746 1.818-1.453 2.502-2.12l3.398 3.53c-1.545 1.597-3.187 3.012-4.926 4.241-.756.526-1.566 1.045-2.437 1.554-.869.509-1.781.962-2.738 1.357-.959.395-1.95.711-2.977.948-1.029.238-2.068.356-3.123.356" transform="matrix(4.16667 0 0 4.16667 184.847231211 260.25437487)"></path><path d="m0-24.605c.377-1.511.781-2.894 1.211-4.149.43-1.256.879-2.288 1.344-3.096s.925-1.212 1.383-1.212c.333 0 .593.071.777.211.185.141.32.316.408.527s.145.435.172.672c.025.236.039.452.039.646 0 .561-.148 1.282-.447 2.16s-.676 1.822-1.133 2.832-.971 2.037-1.541 3.082c-.572 1.045-1.119 2.015-1.647 2.911-.281-.035-.552-.066-.816-.093-.264-.026-.527-.056-.791-.092.316-1.422.662-2.888 1.041-4.399m16.174 30.623c-.172.115-.313.208-.377.245-.729.422-1.422.786-2.08 1.094-.66.308-1.494.787-4.252.405s-7.17-2.677-9.892-8.636c-1.965-4.302-.618-10.128-.589-10.585.44-.544.918-1.155 1.438-1.832.517-.675 1.031-1.365 1.541-2.068h10.115c.422 0 .809-.192 1.16-.579.35-.386.526-.887.526-1.502 0-.509-.078-.931-.237-1.265-.158-.333-.412-.508-.763-.526-.299-.018-.678-.035-1.133-.053-.457-.017-.949-.035-1.477-.052-.525-.018-1.07-.04-1.633-.066-.562-.026-1.083-.049-1.566-.066-.484-.018-.91-.031-1.279-.039-.367-.009-.631-.023-.789-.04.633-1.001 1.232-2.011 1.804-3.03.571-1.018 1.067-2.024 1.489-3.016s.754-1.967 1-2.924.369-1.866.369-2.727c0-1.018-.117-1.998-.356-2.937-.236-.94-.576-1.761-1.013-2.463-.44-.702-.971-1.265-1.594-1.687-.623-.42-1.315-.631-2.068-.631-1.178 0-2.301.522-3.372 1.567-1.072 1.045-2.06 2.433-2.964 4.162-.905 1.731-1.721 3.706-2.45 5.928-.73 2.221-1.33 4.517-1.804 6.888-.176.036-.496.049-.963.04-.465-.008-.992-.022-1.58-.04-.588-.017-1.203-.021-1.844-.013-.641.01-1.229.057-1.766.145-.535.088-.974.224-1.316.409-.342.184-.514.452-.514.803 0 .158.01.347.026.567.017.219.08.43.185.631.106.203.272.378.5.528.229.149.553.25.975.303.949.105 1.674.193 2.174.263.5.071.912.136 1.238.197.324.062.633.124.922.185.289.062.697.127 1.224.197-.158 1.177-.281 2.363-.369 3.557s-.131 2.318-.131 3.372c0 2.705.172 5.137.514 7.297.342 2.16.856 4 1.541 5.519.686 1.52 9.096 10.814 14.086 10.703 3.697.001 7.193-1.747 8.51-2.484.106-.059.279-.174.478-.311-.692-1.75-1.251-3.563-1.644-5.433" transform="matrix(4.16667 0 0 4.16667 282.706892832 279.572306991)"></path><path d="m0 6.85c-.615 2.16-1.105 4.176-1.475 6.046-.369 1.87-.552 3.49-.552 4.86 0 1.195.25 2.13.75 2.806.5.677 1.33 1.015 2.49 1.015.437 0 .965-.128 1.58-.383.615-.254 1.316-.654 2.107-1.198s1.674-1.248 2.649-2.108c.974-.86 2.058-1.888 3.252-3.082.053.106.158.352.316.737.141.334.338.839.594 1.515.254.677.609 1.603 1.066 2.779-1.316 1.388-2.638 2.609-3.964 3.662-1.327 1.054-2.618 1.937-3.874 2.648-1.255.711-2.459 1.247-3.609 1.606-1.15.361-2.207.54-3.174.54-1.105 0-2.133-.206-3.082-.618-.949-.413-1.769-1.014-2.463-1.804-.693-.792-1.242-1.761-1.646-2.912-.404-1.15-.606-2.463-.606-3.938 0-.51.053-1.15.159-1.923.105-.773.257-1.651.461-2.635.201-.983.447-2.058.736-3.227.291-1.167.611-2.402.963-3.701-2.354.246-4.612.474-6.772.685-2.16.21-4.31.412-6.453.606-.492 1.475-.98 2.92-1.463 4.334-.482 1.414-.949 2.739-1.396 3.977-.448 1.238-.862 2.371-1.239 3.399-.376 1.027-.697 1.901-.96 2.621-.862 1.862-1.7 3.178-2.516 3.952-.817.772-1.551 1.158-2.199 1.158-.422 0-.836-.07-1.239-.21-.404-.141-.765-.343-1.08-.606-.316-.264-.566-.58-.752-.949-.183-.369-.275-.781-.275-1.238 0-.28.033-.553.103-.816.739-2.688 1.543-5.283 2.413-7.785.869-2.502 1.752-4.94 2.646-7.31-.965 0-1.892-.075-2.779-.225-.887-.148-1.707-.408-2.463-.776-.756-.369-1.428-.879-2.016-1.528-.588-.65-1.076-1.476-1.461-2.477-.07-.316-.129-.597-.172-.843-.044-.246-.066-.491-.066-.737 0-.773.273-1.159.816-1.159.334 0 .704.179 1.108.54.404.359.922.934 1.555 1.725.824-.035 1.65-.061 2.476-.079.824-.017 1.711-.026 2.66-.026h2.53c.63-1.634 1.232-3.21 1.804-4.73.571-1.518 1.102-3.006 1.594-4.464.297-.931.535-1.862.711-2.792.176-.931.264-1.819.264-2.661 0-.685-.063-1.318-.186-1.897-.123-.58-.324-1.071-.605-1.476-.282-.403-.641-.719-1.08-.948-.44-.228-.985-.343-1.633-.343-.528 0-1.137.088-1.832.264-.694.176-1.461.461-2.305.857-.842.394-1.76.913-2.752 1.553-.992.642-2.068 1.436-3.228 2.385-.405.333-.776.57-1.12.711-.341.141-.654.211-.935.211-.141 0-.246-.233-.317-.698-.07-.465-.103-1.041-.103-1.726 0-.913.215-1.782.644-2.608.43-.826 1.006-1.584 1.725-2.279.721-.693 1.551-1.326 2.49-1.896.94-.571 1.907-1.054 2.899-1.449.992-.396 1.978-.699 2.963-.91.984-.21 1.888-.315 2.713-.315 1.23 0 2.406.167 3.531.5 1.123.334 2.111.869 2.963 1.607.851.738 1.529 1.695 2.029 2.872.5 1.176.75 2.608.75 4.293 0 .791-.092 1.757-.275 2.899-.186 1.142-.436 2.393-.752 3.754-.317 1.361-.69 2.809-1.12 4.347-.429 1.537-.892 3.104-1.382 4.702 1.808-.123 3.845-.246 6.111-.369s4.539-.246 6.822-.369c.897-2.933 1.885-5.967 2.965-9.102s2.227-6.212 3.438-9.234c.404-1.001.935-1.799 1.593-2.397.659-.597 1.436-.896 2.332-.896.37 0 .725.053 1.067.159.342.105.646.267.908.487.264.22.471.501.619.843.151.343.225.742.225 1.199 0 .404-.026.874-.078 1.409-.053.536-.194 1.111-.422 1.726-.405 1.089-.834 2.252-1.291 3.49s-.918 2.512-1.383 3.82c-.467 1.309-.932 2.648-1.397 4.018-.466 1.369-.908 2.73-1.33 4.083 1.106-.07 2.073-.136 2.897-.197.826-.062 1.449-.111 1.871-.146.193-.017.373-.03.541-.039.166-.009.32-.014.461-.014.525 0 .951.053 1.277.159.324.105.578.254.764.448.184.193.31.421.381.684.07.264.105.563.105.896 0 .369-.078.677-.236.922-.158.247-.356.444-.592.593-.238.149-.488.254-.752.316-.264.061-.51.101-.738.119-.49.052-.842.092-1.053.118-.211.027-.359.044-.447.053s-.147.018-.172.026c-.025.009-.092.018-.197.027-.106.008-.291.022-.553.039-.264.017-.668.052-1.213.105-.633.071-1.252.132-1.857.185-.606.053-1.207.105-1.805.158" transform="matrix(4.16667 0 0 4.16667 222.477261315 419.28366876)"></path><path d="m0 15.174c.596 0 1.176-.304 1.738-.909.561-.607 1.053-1.37 1.475-2.292s.76-1.941 1.014-3.056c.255-1.115.382-2.182.382-3.201 0-.808-.062-1.559-.183-2.252-.123-.694-.309-1.295-.555-1.805-.246-.509-.562-.913-.947-1.212-.387-.298-.852-.448-1.397-.448-.72 0-1.406.308-2.054.922-.651.615-1.221 1.401-1.713 2.358s-.879 2.016-1.158 3.174c-.282 1.159-.422 2.276-.422 3.346 0 .738.07 1.432.211 2.082.14.649.359 1.216.658 1.699s.693.869 1.185 1.158c.493.29 1.08.436 1.766.436m8.139-14.674c.509 1.019.892 2.094 1.146 3.227s.383 2.218.383 3.254-.115 2.081-.344 3.134c-.228 1.054-.556 2.073-.986 3.056-.432.984-.959 1.906-1.582 2.767-.623.86-1.334 1.606-2.133 2.239-.801.632-1.674 1.133-2.621 1.502-.949.368-1.959.553-3.029.553-1.547 0-2.869-.338-3.965-1.015-1.098-.676-1.998-1.558-2.701-2.647s-1.217-2.319-1.541-3.688c-.325-1.37-.489-2.758-.489-4.163 0-1.932.291-3.736.871-5.413.579-1.677 1.409-3.135 2.489-4.373s2.402-2.213 3.965-2.925c1.562-.711 3.32-1.066 5.269-1.066 1.668 0 3.231.258 4.69.777 1.457.517 2.822 1.212 4.095 2.081 1.274.869 2.459 1.866 3.557 2.99s2.121 2.283 3.068 3.477l-.5 3.715c-.474-.632-1.115-1.318-1.924-2.055-.806-.737-1.664-1.458-2.568-2.16s-1.795-1.365-2.674-1.989c-.877-.624-1.633-1.146-2.265-1.568z" transform="matrix(4.16667 0 0 4.16667 304.370243496 445.85035668)"></path><path d="m0 15.436c0-.228.018-.553.053-.975.035-.421.088-.904.158-1.448.068-.545.148-1.12.236-1.725.088-.607.176-1.208.264-1.805.193-1.405.43-2.915.711-4.531h-.395c-.211.263-.453.658-.724 1.185-.274.527-.655 1.3-1.147 2.319-.492 1.018-1.119 2.339-1.883 3.964-.763 1.624-1.752 3.658-2.964 6.099-.352.72-.76 1.207-1.225 1.462s-.979.382-1.541.382c-.721 0-1.299-.154-1.738-.461-.44-.308-.778-.72-1.014-1.238-.238-.518-.396-1.107-.475-1.765-.08-.659-.119-1.34-.119-2.042 0-.72.043-1.571.133-2.556.086-.983.201-2.019.342-3.108.14-1.089.303-2.199.486-3.332.186-1.133.379-2.218.58-3.254s.408-1.984.619-2.845c.211-.86.405-1.563.58-2.107.176-.563.342-1.01.5-1.344.159-.334.338-.593.542-.777.201-.185.443-.307.724-.369.279-.061.641-.092 1.08-.092.666 0 1.19.022 1.567.065.377.044.658.15.843.317.184.167.293.408.328.724.036.317.053.747.053 1.291 0 .299-.012.641-.039 1.028-.025.386-.066.798-.119 1.238-.053.438-.109.891-.17 1.356-.062.466-.129.918-.197 1.357-.158 1.037-.326 2.107-.502 3.214l.291.316c.035-.053.223-.386.566-1.001.342-.614.764-1.353 1.264-2.213s1.041-1.761 1.621-2.7c.578-.94 1.133-1.77 1.658-2.489.51-.721 1.051-1.318 1.621-1.792.571-.474 1.252-.711 2.041-.711.739 0 1.371.215 1.897.645.527.431.791 1.04.791 1.831 0 .685-.045 1.335-.131 1.949-.09.616-.199 1.212-.33 1.792-.133.58-.268 1.146-.408 1.699-.141.553-.274 1.12-.395 1.699-.09.404-.142.659-.158.765-.018.104-.027.174-.027.21l.289.316c.035-.053.238-.382.607-.988s.82-1.339 1.356-2.2c.537-.86 1.107-1.764 1.713-2.713.605-.949 1.171-1.783 1.699-2.502.509-.703 1.017-1.295 1.527-1.779.51-.483 1.133-.724 1.871-.724.826 0 1.524.215 2.094.645.57.431.857 1.04.857 1.831 0 1.212-.062 2.363-.185 3.451-.123 1.089-.264 2.161-.422 3.214-.156 1.054-.299 2.12-.42 3.201-.123 1.08-.186 2.226-.186 3.438 0 .948.123 1.721.37 2.318.246.597.545.896.896.896.367 0 .754-.079 1.158-.237.405-.159.817-.36 1.239-.607.421-.245.834-.53 1.238-.855.404-.326.791-.663 1.158-1.015.861-.808 1.713-1.721 2.557-2.739l.447 6.217c-.773.615-1.541 1.251-2.305 1.91-.763.658-1.572 1.256-2.424 1.791-.851.536-1.787.974-2.804 1.317-1.02.343-2.17.514-3.451.514-.633 0-1.164-.206-1.594-.619-.432-.412-.778-.989-1.041-1.726-.264-.737-.453-1.606-.567-2.608-.115-1.001-.171-2.089-.171-3.267 0-1.106.039-2.278.119-3.517.078-1.238.187-2.489.328-3.753h-.395l-5.347 13.62c-.457.737-.967 1.233-1.528 1.488-.562.255-1.213.382-1.949.382-.562 0-1.012-.154-1.344-.461-.334-.308-.593-.702-.777-1.186-.186-.482-.309-1.014-.369-1.593-.063-.581-.092-1.142-.092-1.687" transform="matrix(4.16667 0 0 4.16667 412.378246569 445.30452291)"></path><path d="m0 .5c.631 0 1.32-.162 2.068-.487.746-.325 1.44-.742 2.08-1.251.641-.51 1.182-1.063 1.622-1.66.437-.597.658-1.176.658-1.739 0-.79-.145-1.44-.436-1.949-.289-.51-.644-.765-1.066-.765-.756 0-1.401.141-1.936.422-.537.282-.984.646-1.344 1.093-.361.448-.65.958-.869 1.528-.22.572-.386 1.147-.502 1.726-.113.579-.187 1.142-.222 1.686s-.053 1.01-.053 1.396m3.504 12.382c-1.652 0-3.096-.299-4.334-.896-1.238-.596-2.27-1.4-3.096-2.411-.826-1.009-1.445-2.177-1.857-3.503s-.619-2.718-.619-4.176c0-.983.095-2.024.291-3.122.191-1.096.486-2.172.881-3.226.396-1.054.892-2.06 1.488-3.017.597-.957 1.295-1.8 2.096-2.529.798-.729 1.693-1.308 2.687-1.738.99-.431 2.094-.646 3.305-.646.984 0 1.896.158 2.74.474s1.576.761 2.199 1.331 1.111 1.26 1.463 2.067c.352.809.527 1.713.527 2.714 0 1.089-.269 2.178-.804 3.267s-1.278 2.116-2.225 3.082c-.949.966-2.078 1.827-3.387 2.582-1.308.755-2.726 1.344-4.254 1.764.264.475.522.87.778 1.186.254.316.513.562.777.737.264.176.539.3.83.369.289.071.602.106.934.106 1.055 0 2.166-.211 3.334-.632 1.168-.422 2.305-.949 3.41-1.581 1.107-.632 2.152-1.321 3.137-2.068.982-.746 1.816-1.453 2.502-2.12l3.398 3.53c-1.547 1.597-3.187 3.012-4.926 4.241-.756.526-1.568 1.045-2.437 1.554s-1.783.962-2.74 1.357-1.95.711-2.977.948c-1.027.238-2.068.356-3.121.356" transform="matrix(4.16667 0 0 4.16667 533.22959325 476.47538118)"></path><path d="m0 14.278c0-.772.045-1.673.133-2.7.088-1.028.205-2.112.355-3.254.149-1.141.325-2.305.528-3.49.201-1.186.416-2.314.644-3.385.229-1.071.457-2.056.686-2.951.226-.896.455-1.633.683-2.213.141-.386.282-.694.422-.922.141-.228.303-.408.488-.54.184-.132.413-.22.684-.264.273-.043.611-.065 1.016-.065.455 0 .81.022 1.066.065.254.044.443.15.566.317.124.167.198.408.225.724.025.317.039.747.039 1.291v2.358c0 .922.018 1.831.053 2.726h.289c.352-.702.746-1.488 1.186-2.357.439-.869.949-1.682 1.527-2.438.58-.755 1.238-1.391 1.976-1.909.739-.518 1.59-.777 2.555-.777.334 0 .66.057.975.171.316.114.593.277.83.487.238.211.426.471.566.777.141.308.211.655.211 1.041 0 .299-.043.716-.131 1.251-.088.536-.185 1.098-.291 1.687-.105.588-.201 1.158-.289 1.712-.088.553-.131 1.014-.131 1.383 0 .632.061 1.159.184 1.581.123.421.285.759.488 1.013.201.255.43.435.684.54.254.106.523.159.804.159.79 0 1.606-.175 2.45-.527.843-.351 1.615-.746 2.318-1.185.826-.51 1.633-1.089 2.424-1.74l-.395 6.165c-.457.299-.976.632-1.554 1.001-.58.37-1.2.716-1.858 1.04-.658.326-1.343.598-2.054.818s-1.436.329-2.174.329c-1.317 0-2.381-.268-3.188-.804-.808-.535-1.449-1.238-1.924-2.107-.472-.869-.824-1.844-1.052-2.924-.229-1.08-.414-2.174-.553-3.28h-.422l-4.717 13.145c-.246.686-.478 1.252-.697 1.699-.221.449-.443.813-.672 1.094-.228.281-.474.479-.738.593s-.553.171-.869.171c-.721 0-1.299-.153-1.739-.461-.439-.308-.777-.72-1.013-1.238-.239-.518-.397-1.107-.475-1.765-.08-.659-.119-1.34-.119-2.042" transform="matrix(4.16667 0 0 4.16667 597.11297769 447.71702484)"></path></g><path d="m0-4.351.003.003zm-10.001 16.876c-3.081-1.458-5.02-4.362-5.4-7.52-2.68 1.707-6.159 2.047-9.241.59-4.76-2.253-5.672-9.504-3.417-14.266 2.056-4.347 6.987-6.427 11.452-5.046 2.581-3.898 7.714-5.415 12.057-3.362 4.347 2.059 6.425 6.992 5.045 11.457 3.9 2.579 5.417 7.711 3.359 12.058-2.254 4.763-9.091 8.345-13.855 6.089" fill="#4eb848" transform="matrix(4.16667 0 0 4.16667 591.06297285 276.967721574)"></path><path d="m0 15.971c-3.419-1.616-4.854-6.132-3.201-10.275 1.71-4.285 6.088-6.578 9.757-5.113 1.835.732 3.204 2.259 3.852 4.298.617 1.93.509 4.11-.295 6.13-.806 2.022-2.231 3.673-4.006 4.648-1.877 1.032-3.919 1.194-5.753.466-.119-.049-.241-.099-.354-.154" fill="#4eb848" transform="matrix(4.16667 0 0 4.16667 549.15877266 114.785925162)"></path><path d="m-8.494 10.71c-.268-.127-.527-.274-.779-.44-3.29-2.189-3.889-7.096-1.336-10.935 2.557-3.844 7.311-5.187 10.601-3.002 1.646 1.095 2.67 2.87 2.888 4.999.206 2.017-.345 4.125-1.55 5.939-2.361 3.55-6.597 4.967-9.824 3.439" fill="#4eb848" transform="matrix(4.16667 0 0 4.16667 652.85885562 171.219303642)"></path><path d="m0 13.778c-1.018-.482-1.876-1.202-2.519-2.128-2.246-3.254-.988-8.031 2.807-10.656 1.792-1.238 3.888-1.827 5.905-1.657 2.136.178 3.931 1.17 5.053 2.794 1.121 1.622 1.419 3.652.831 5.709-.554 1.951-1.845 3.705-3.638 4.945-1.789 1.235-3.886 1.826-5.905 1.658-.915-.078-1.769-.303-2.534-.665" fill="#4eb848" transform="matrix(4.16667 0 0 4.16667 640.70051256 231.801435441)"></path><path d="m0 15.524c-2.689-1.273-4.537-4.406-4.418-7.997.071-2.176.846-4.211 2.184-5.733 1.417-1.61 3.28-2.46 5.255-2.395 3.949.131 7.039 3.988 6.884 8.598-.07 2.178-.846 4.214-2.181 5.734-1.417 1.608-3.281 2.459-5.253 2.394-.874-.029-1.707-.24-2.471-.601" fill="#4eb848" transform="matrix(4.16667 0 0 4.16667 472.64204478 138.905944458)"></path></g></svg>